<svg width="800" height="202" viewBox="0 0 800 202" fill="none" xmlns="http://www.w3.org/2000/svg">
<path d="M327.764 67.6257C328.554 67.6257 332.535 67.8479 334.135 67.996C335.74 68.1811 338.935 68.6543 340.51 68.9443C342.072 69.2653 344.518 69.8392 346.669 70.4975C348.183 70.9994 351.197 72.1124 352.697 72.7254C354.178 73.3672 357.074 74.7393 358.488 75.4717C359.885 76.2225 362.573 77.9156 363.9 78.8084C365.21 79.7361 367.788 81.6904 369.037 82.7067C370.259 83.7455 373.096 86.3396 373.733 87.0082C374.815 88.1704 376.914 90.5835 377.93 91.8342C378.921 93.1117 380.812 95.7222 381.705 97.047C382.995 99.0569 383.784 100.425 384.881 102.546C385.582 103.984 386.897 106.923 387.508 108.423C388.082 109.929 389.123 112.951 389.588 114.471C389.849 115.356 390.678 119.11 390.966 120.688C391.219 122.278 391.624 125.487 391.772 127.085C391.883 128.682 392.005 131.856 391.957 133.44C391.883 135.03 391.624 138.225 391.439 139.83C391.219 141.434 390.678 144.602 390.355 146.163C389.849 148.356 389.123 150.761 388.621 152.275C388.082 153.783 386.897 156.789 386.253 158.27C385.582 159.728 383.784 163.287 383.389 163.972C382.995 164.655 380.812 167.99 379.884 169.302C378.921 170.6 376.914 173.129 375.875 174.35C374.815 175.542 373.096 177.372 371.45 178.907C370.259 179.966 367.788 182.019 366.509 183.013C365.21 183.976 362.573 185.796 361.234 186.656C359.885 187.489 357.074 188.971 355.637 189.672C354.178 190.345 351.197 191.6 349.693 192.174C348.183 192.713 344.518 193.873 343.621 194.089C342.072 194.445 338.935 195.056 337.342 195.311C335.74 195.531 332.535 195.864 330.94 195.975C328.554 196.086 326.974 196.086 324.59 195.975C322.996 195.864 319.791 195.531 318.186 195.311C316.596 195.056 313.457 194.445 311.91 194.089C311.011 193.873 307.347 192.713 305.837 192.174C304.333 191.6 301.351 190.345 299.892 189.672C298.456 188.971 295.644 187.489 294.297 186.656C292.955 185.796 290.318 183.976 289.022 183.013C287.742 182.019 285.272 179.966 284.079 178.907C282.433 177.372 280.713 175.542 279.654 174.35C278.615 173.129 276.607 170.6 275.646 169.302C274.719 167.99 272.534 164.655 272.139 163.972C271.744 163.287 269.948 159.728 269.275 158.27C268.634 156.789 267.447 153.783 266.908 152.275C266.406 150.761 265.68 148.356 265.176 146.163C264.853 144.602 264.31 141.434 264.089 139.83C263.904 138.225 263.647 135.03 263.571 133.44C263.526 131.856 263.647 128.682 263.758 127.085C263.904 125.487 264.31 122.278 264.565 120.688C264.853 119.11 265.68 115.356 265.941 114.471C266.406 112.951 267.447 109.929 268.023 108.423C268.634 106.923 269.948 103.984 270.65 102.546C271.744 100.425 272.534 99.0569 273.824 97.047C274.719 95.7222 276.607 93.1117 277.601 91.8342C278.615 90.5835 280.713 88.1704 281.797 87.0082C282.433 86.3396 285.272 83.7455 286.492 82.7067C287.742 81.6904 290.318 79.7361 291.63 78.8084C292.955 77.9156 295.644 76.2225 297.041 75.4717C298.456 74.7393 301.35 73.3672 302.834 72.7254C304.333 72.1124 307.347 70.9994 308.861 70.4975C311.011 69.8392 313.457 69.2653 315.02 68.9443C316.596 68.6543 319.791 68.1811 321.395 67.996C322.996 67.8479 326.974 67.6257 327.764 67.6257Z" stroke="black" stroke-width="8.04961" stroke-linecap="round" stroke-linejoin="round"/>
<path d="M392.04 134.275L391.723 5" stroke="black" stroke-width="8.04961" stroke-linecap="round" stroke-linejoin="round"/>
<path d="M5 68.5L58.6586 68.3601" stroke="black" stroke-width="8.04961" stroke-linecap="round" stroke-linejoin="round"/>
<path d="M18.8528 16.952V156.118" stroke="black" stroke-width="8.04961" stroke-linecap="round" stroke-linejoin="round"/>
<path d="M117.376 73.9453L117.135 148.644" stroke="black" stroke-width="8.04961" stroke-linecap="round" stroke-linejoin="round"/>
<path d="M118.069 151.01L117.756 152.281" stroke="black" stroke-width="4.02584" stroke-linecap="round" stroke-linejoin="round"/>
<path d="M590.435 100.464L590.289 197.498" stroke="black" stroke-width="8.04961" stroke-linecap="round" stroke-linejoin="round"/>
<path d="M590.293 100.384C591.006 96.7864 591.707 94.4282 592.395 93.3091C593.085 92.1914 594.031 90.7165 595.234 88.8842C596.436 87.0534 597.592 85.5654 598.705 84.4202C599.817 83.2765 601.009 82.121 602.282 80.9539C603.555 79.7868 604.888 78.6485 606.283 77.5391C607.678 76.4309 609.184 75.3509 610.801 74.299C612.418 73.2485 613.856 72.4017 615.117 71.7585C616.377 71.1153 617.778 70.5201 619.321 69.9729C620.866 69.427 622.329 69.0355 623.711 68.7982C625.094 68.561 626.481 68.3491 627.873 68.1626C629.266 67.9774 630.567 67.8657 631.775 67.8273C632.984 67.7902 633.588 67.7717 633.588 67.7717" stroke="black" stroke-width="8.04961" stroke-linecap="round" stroke-linejoin="round"/>
<path d="M731.638 69.0369C732.419 69.039 736.353 69.2591 737.935 69.4052C739.521 69.5862 742.678 70.0552 744.238 70.3411C745.78 70.66 748.198 71.2257 750.325 71.8778C751.822 72.3736 754.801 73.4742 756.282 74.079C757.747 74.7126 760.61 76.0703 762.007 76.7924C763.388 77.537 766.045 79.2095 767.356 80.092C768.652 81.0095 771.199 82.9412 772.435 83.9451C773.642 84.9716 776.448 87.5368 777.076 88.1972C778.146 89.3471 780.221 91.7314 781.225 92.9677C782.206 94.2308 784.074 96.8105 784.957 98.1209C786.232 100.108 787.012 101.46 788.096 103.556C788.789 104.977 790.087 107.884 790.692 109.365C791.262 110.853 792.288 113.842 792.749 115.343C793.008 116.218 793.825 119.931 794.111 121.488C794.362 123.06 794.761 126.232 794.907 127.814C795.018 129.389 795.138 132.529 795.09 134.094C795.018 135.666 794.761 138.824 794.58 140.41C794.362 141.996 793.825 145.127 793.506 146.672C793.008 148.838 792.288 151.214 791.793 152.711C791.262 154.203 790.087 157.173 789.454 158.638C788.789 160.08 787.012 163.598 786.623 164.273C786.232 164.949 784.074 168.247 783.157 169.543C782.206 170.825 780.221 173.326 779.195 174.531C778.146 175.71 776.448 177.521 774.821 179.037C773.642 180.084 771.199 182.114 769.935 183.095C768.652 184.046 766.045 185.848 764.721 186.697C763.388 187.52 760.61 188.985 759.189 189.678C757.747 190.343 754.801 191.583 753.314 192.151C751.822 192.684 748.198 193.83 747.311 194.044C745.78 194.397 742.678 195 741.107 195.251C739.521 195.469 736.353 195.798 734.777 195.907C732.419 196.018 730.858 196.018 728.5 195.907C726.923 195.798 723.757 195.469 722.171 195.251C720.599 195 717.495 194.397 715.966 194.044C715.078 193.83 711.455 192.684 709.963 192.151C708.476 191.583 705.528 190.343 704.086 189.678C702.667 188.985 699.888 187.52 698.555 186.697C697.23 185.848 694.623 184.046 693.342 183.095C692.077 182.114 689.635 180.084 688.456 179.037C686.829 177.521 685.13 175.71 684.083 174.531C683.056 173.326 681.071 170.825 680.12 169.543C679.203 168.247 677.045 164.949 676.654 164.273C676.263 163.598 674.488 160.08 673.824 158.638C673.188 157.173 672.015 154.203 671.483 152.711C670.987 151.214 670.269 148.838 669.769 146.672C669.45 145.127 668.915 141.996 668.697 140.41C668.514 138.824 668.259 135.666 668.185 134.094C668.14 132.529 668.259 129.389 668.368 127.814C668.514 126.232 668.915 123.06 669.166 121.488C669.45 119.931 670.269 116.218 670.528 115.343C670.987 113.842 672.015 110.853 672.583 109.365C673.188 107.884 674.488 104.977 675.181 103.556C676.263 101.46 677.045 100.108 678.318 98.1209C679.203 96.8105 681.071 94.2308 682.052 92.9677C683.056 91.7314 685.13 89.3471 686.199 88.1972C686.829 87.5368 689.635 84.9716 690.84 83.9451C692.077 82.9412 694.623 81.0095 695.919 80.092C697.23 79.2095 699.888 77.537 701.268 76.7924C702.667 76.0703 705.528 74.7126 706.993 74.079C708.476 73.4742 711.455 72.3736 712.953 71.8778C715.078 71.2257 717.495 70.66 719.04 70.3411C720.599 70.0552 723.757 69.5862 725.343 69.4052C726.923 69.2591 730.858 69.039 731.638 69.0369Z" stroke="black" stroke-width="8.04961" stroke-linecap="round" stroke-linejoin="round"/>
<path d="M795.018 131.303V196.28" stroke="black" stroke-width="8.04961" stroke-linecap="round" stroke-linejoin="round"/>
<path d="M117.236 152.532L117.328 159.422" stroke="black" stroke-width="8.04961" stroke-linecap="round" stroke-linejoin="round"/>
<path d="M117.376 161.244C118.09 163.862 118.679 165.628 119.143 166.542C119.608 167.455 120.245 168.595 121.054 169.963C121.864 171.331 122.563 172.427 123.15 173.25C123.737 174.074 124.491 175.116 125.411 176.377C126.33 177.637 127.144 178.759 127.855 179.742C128.567 180.727 129.282 181.573 130.002 182.281C130.722 182.99 131.477 183.656 132.267 184.278C133.057 184.9 133.901 185.576 134.8 186.309C135.698 187.041 136.579 187.688 137.441 188.249C138.305 188.808 139.107 189.283 139.846 189.672C140.585 190.063 141.35 190.471 142.142 190.896C142.933 191.321 143.744 191.746 144.573 192.169C145.403 192.593 146.178 192.971 146.898 193.303C147.616 193.635 148.361 193.913 149.132 194.138C149.901 194.363 150.861 194.639 152.01 194.965C153.159 195.292 154.43 195.578 155.822 195.825C157.214 196.072 159.497 196.265 162.672 196.403C165.847 196.54 168.897 196.613 171.822 196.621C174.747 196.629 176.999 196.525 178.578 196.308C180.155 196.092 181.825 195.767 183.589 195.333C185.353 194.9 186.948 194.4 188.374 193.834C189.802 193.267 191.411 192.521 193.202 191.596C194.995 190.668 196.535 189.79 197.825 188.96C199.114 188.131 200.326 187.269 201.462 186.377C202.597 185.482 203.783 184.468 205.02 183.334C206.257 182.201 207.363 181.09 208.337 180.001C208.434 179.893 208.531 179.785 208.627 179.676" stroke="black" stroke-width="8.04961" stroke-linecap="round" stroke-linejoin="round"/>
<path d="M220.035 74.0707L219.879 196.683" stroke="black" stroke-width="8.04961" stroke-linecap="round" stroke-linejoin="round"/>
<path d="M220.116 160.679C218.851 164.185 217.873 166.5 217.18 167.622C216.489 168.742 215.648 170.144 214.658 171.826C213.668 173.508 213.173 174.348 213.173 174.348" stroke="black" stroke-width="8.04961" stroke-linecap="round" stroke-linejoin="round"/>
<path d="M213.261 173.98C211.732 175.95 210.968 176.934 210.968 176.934" stroke="black" stroke-width="8.04961" stroke-linecap="round" stroke-linejoin="round"/>
<path d="M117.203 124.333V160.378" stroke="black" stroke-width="8.04961" stroke-linecap="round" stroke-linejoin="round"/>
<path d="M117.203 160.378H117.248" stroke="black" stroke-width="8.04961" stroke-linecap="round" stroke-linejoin="round"/>
<path d="M18.8899 156.165C18.8501 160.057 18.8906 162.704 19.0113 164.106C19.1333 165.507 19.3178 166.915 19.5647 168.329C19.8129 169.742 20.2017 171.113 20.7311 172.441C21.2618 173.769 21.8556 175.017 22.5125 176.185C23.1695 177.354 23.8984 178.47 24.6993 179.534C25.2863 180.316 25.852 181.021 26.3964 181.649" stroke="black" stroke-width="8.04961" stroke-linecap="round" stroke-linejoin="round"/>
<path d="M26.5444 183.616C30.3392 187.044 32.8338 189.132 34.0283 189.88C35.2215 190.627 36.7602 191.459 38.6446 192.375C40.5289 193.291 42.2329 194.057 43.7566 194.673C45.2816 195.289 46.0441 195.597 46.0441 195.597" stroke="black" stroke-width="5.36709" stroke-linecap="round" stroke-linejoin="round"/>
<path d="M28.793 181.209C32.9813 186.067 35.6042 188.778 36.6616 189.343C37.7176 189.908 39.4209 190.88 41.7715 192.26C44.1208 193.641 46.2664 194.761 48.2083 195.619C50.1503 196.478 51.7569 197.108 53.0282 197.51C54.2995 197.91 54.9352 198.111 54.9352 198.111" stroke="black" stroke-width="4.02584" stroke-linecap="round" stroke-linejoin="round"/>
<path d="M45.3798 196.251C48.8152 197.188 50.6536 197.7 50.895 197.79C51.135 197.879 51.6047 197.938 52.3041 197.966C53.0035 197.994 53.3533 198.008 53.3533 198.008" stroke="black" stroke-width="4.02584" stroke-linecap="round" stroke-linejoin="round"/>
<path d="M54.3674 198.777C55.4906 198.807 57.0657 198.851 59.0927 198.909C61.1197 198.968 62.1332 198.997 62.1332 198.997" stroke="black" stroke-width="2.14766" stroke-linecap="round" stroke-linejoin="round"/>
<path d="M53.3615 196.654C58.2314 198.104 60.6664 198.828 60.6664 198.828" stroke="black" stroke-width="2.14766" stroke-linecap="round" stroke-linejoin="round"/>
<path d="M62.2339 199.221C62.8949 199.231 63.2254 199.236 63.2254 199.236" stroke="black" stroke-width="1.34126" stroke-linecap="round" stroke-linejoin="round"/>
<path d="M61.012 198.497C62.2202 198.896 62.8243 199.096 62.8243 199.096" stroke="black" stroke-width="1.34126" stroke-linecap="round" stroke-linejoin="round"/>
<path d="M436.447 74.2147L436.207 148.912" stroke="black" stroke-width="8.04961" stroke-linecap="round" stroke-linejoin="round"/>
<path d="M437.141 151.278L436.828 152.551" stroke="black" stroke-width="4.02584" stroke-linecap="round" stroke-linejoin="round"/>
<path d="M436.307 152.802L436.4 159.691" stroke="black" stroke-width="8.04961" stroke-linecap="round" stroke-linejoin="round"/>
<path d="M436.445 161.512C437.161 164.13 437.751 165.896 438.214 166.809C438.678 167.722 439.315 168.863 440.126 170.232C440.935 171.599 441.633 172.695 442.222 173.519C442.809 174.342 443.562 175.384 444.483 176.644C445.401 177.905 446.216 179.027 446.926 180.012C447.637 180.995 448.353 181.841 449.074 182.55C449.794 183.258 450.549 183.923 451.339 184.546C452.129 185.168 452.973 185.846 453.871 186.578C454.768 187.31 455.649 187.956 456.513 188.516C457.375 189.075 458.177 189.551 458.918 189.942C459.657 190.331 460.422 190.738 461.213 191.164C462.005 191.59 462.815 192.015 463.645 192.439C464.475 192.863 465.249 193.24 465.969 193.57C466.688 193.902 467.432 194.181 468.202 194.406C468.972 194.631 469.932 194.906 471.082 195.233C472.231 195.559 473.501 195.846 474.893 196.094C476.285 196.341 478.569 196.533 481.744 196.671C484.917 196.809 487.967 196.882 490.894 196.889C493.819 196.897 496.07 196.793 497.647 196.576C499.226 196.359 500.897 196.035 502.661 195.603C504.424 195.169 506.019 194.67 507.446 194.103C508.872 193.537 510.481 192.79 512.274 191.863C514.066 190.936 515.606 190.057 516.894 189.228C518.183 188.399 519.396 187.538 520.533 186.644C521.669 185.751 522.855 184.738 524.092 183.604C525.328 182.469 526.433 181.358 527.408 180.271C527.506 180.163 527.602 180.054 527.698 179.944" stroke="black" stroke-width="8.04961" stroke-linecap="round" stroke-linejoin="round"/>
<path d="M539.105 74.3382L538.951 196.95" stroke="black" stroke-width="8.04961" stroke-linecap="round" stroke-linejoin="round"/>
<path d="M539.185 160.948C537.921 164.455 536.943 166.768 536.252 167.889C535.561 169.011 534.72 170.412 533.73 172.094C532.74 173.775 532.245 174.616 532.245 174.616" stroke="black" stroke-width="8.04961" stroke-linecap="round" stroke-linejoin="round"/>
<path d="M532.331 174.248C530.803 176.218 530.039 177.204 530.039 177.204" stroke="black" stroke-width="8.04961" stroke-linecap="round" stroke-linejoin="round"/>
<path d="M436.272 124.6V160.646" stroke="black" stroke-width="8.04961" stroke-linecap="round" stroke-linejoin="round"/>
<path d="M436.272 160.646H436.32" stroke="black" stroke-width="8.04961" stroke-linecap="round" stroke-linejoin="round"/>
</svg>
