<svg xmlns="http://www.w3.org/2000/svg" xmlns:xlink="http://www.w3.org/1999/xlink" width="24" height="24" preserveAspectRatio="xMidYMid meet" viewBox="0 0 24 24" style="-ms-transform: rotate(360deg); -webkit-transform: rotate(360deg); transform: rotate(360deg);"><path d="M6 22h12a2 2 0 0 0 2-2V8l-6-6H6a2 2 0 0 0-2 2v16a2 2 0 0 0 2 2zm7-18l5 5h-5V4zm-4.5 7a1.5 1.5 0 1 1-.001 3.001A1.5 1.5 0 0 1 8.5 11zm.5 5l1.597 1.363L13 13l4 6H7l2-3z" fill="#626262"/><rect x="0" y="0" width="24" height="24" fill="rgba(0, 0, 0, 0)" /></svg>